PathFileType	4	(X/Y/Z)	C:\Users\Willi\Documents\Github\OpenSimMatlabBasic\ExampleData\Trials\dynamic03\marker_experimental.trc
DataRate	CameraRate	NumFrames	NumMarkers	Units	OrigDataRate	OrigDataStartFrame	OrigNumFrames
150.000000	150.000000	2	179	mm	150.000000	94	189
Frame#	Time	LFHD			LBHD			RFHD			RBHD			C7			T10			CLAV			STRN			RBAK			LSHO			LUPA			LELB			LFRA			LWRB			LWRA			LFIN			RSHO			RUPA			RELB			RFRA			RWRB			RWRA			RFIN			SACR			LASI			RASI			LT1			LT2			LT3			LS1			LS2			LS3			LTOE			RT1			RT2			RT3			RS1			RS2			RS3			RHEE			RTOE			SACO			SACA			SACL			SACP			LHEE			RM5D			LM5D			LKNE			RKNE			LANK			RANK			LKJC			RKJC			LAJC			RAJC			LTHI			RTHI			LTIB			RTIB			P_ForcePlate1			P_ForcePlate2			P_ForcePlate3			funktRKJC			funktLKJC			funktRHIP			funktLHIP			LHJC			RHJC			LKNEshank			RKNEshank			LKJCshank			RKJCshank			LHF			COP_FP1			VECTIP_FP1			RawCentreFP1			COP_FP2			VECTIP_FP2			RawCentreFP2			COP_FP3			VECTIP_FP3			RawCentreFP3			LPelvisAngles			RPelvisAngles			LFootProgressAngles			RFootProgressAngles			LHipAngles			RHipAngles			LKneeAngles			RKneeAngles			LAnkleAngles			RAnkleAngles			LFFootAngles			RFFootAngles			LAbsAnkleAngle			RAbsAnkleAngle			RNeckAngles			LNeckAngles			RSpineAngles			LSpineAngles			LShoulderAngles			LElbowAngles			LWristAngles			RShoulderAngles			RElbowAngles			RWristAngles			RThoraxAngles			LThoraxAngles			RHeadAngles			LHeadAngles			LHipPower			LKneePower			LAnklePower			RHipPower			RKneePower			RAnklePower			LWaistPower			RWaistPower			LNeckPower			RNeckPower			LShoulderPower			RShoulderPower			LElbowPower			RElbowPower			LWristPower			RWristPower			F_ForcePlate1			F_ForcePlate2			F_ForcePlate3			LHipForce			RHipForce			LKneeForce			RKneeForce			LAnkleForce			RAnkleForce			LNormalisedGRF			RNormalisedGRF			LGroundReactionForce			RGroundReactionForce			LGRF			RGRF			LWaistForce			RWaistForce			LNeckForce			RNeckForce			LShoulderForce			RShoulderForce			LElbowForce			RElbowForce			LWristForce			RWristForce			Force_FP1			RawForceFP1			Force_FP2			RawForceFP2			Force_FP3			RawForceFP3			LHipMoment			RHipMoment			LKneeMoment			RKneeMoment			LAnkleMoment			RAnkleMoment			LGroundReactionMoment			RGroundReactionMoment			LWaistMoment			RWaistMoment			LNeckMoment			RNeckMoment			LShoulderMoment			RShoulderMoment			LElbowMoment			RElbowMoment			LWristMoment			RWristMoment			RawMomentFP1			RawMomentFP2			RawMomentFP3			
		X1	Y1	Z1	X2	Y2	Z2	X3	Y3	Z3	X4	Y4	Z4	X5	Y5	Z5	X6	Y6	Z6	X7	Y7	Z7	X8	Y8	Z8	X9	Y9	Z9	X10	Y10	Z10	X11	Y11	Z11	X12	Y12	Z12	X13	Y13	Z13	X14	Y14	Z14	X15	Y15	Z15	X16	Y16	Z16	X17	Y17	Z17	X18	Y18	Z18	X19	Y19	Z19	X20	Y20	Z20	X21	Y21	Z21	X22	Y22	Z22	X23	Y23	Z23	X24	Y24	Z24	X25	Y25	Z25	X26	Y26	Z26	X27	Y27	Z27	X28	Y28	Z28	X29	Y29	Z29	X30	Y30	Z30	X31	Y31	Z31	X32	Y32	Z32	X33	Y33	Z33	X34	Y34	Z34	X35	Y35	Z35	X36	Y36	Z36	X37	Y37	Z37	X38	Y38	Z38	X39	Y39	Z39	X40	Y40	Z40	X41	Y41	Z41	X42	Y42	Z42	X43	Y43	Z43	X44	Y44	Z44	X45	Y45	Z45	X46	Y46	Z46	X47	Y47	Z47	X48	Y48	Z48	X49	Y49	Z49	X50	Y50	Z50	X51	Y51	Z51	X52	Y52	Z52	X53	Y53	Z53	X54	Y54	Z54	X55	Y55	Z55	X56	Y56	Z56	X57	Y57	Z57	X58	Y58	Z58	X59	Y59	Z59	X60	Y60	Z60	X61	Y61	Z61	X62	Y62	Z62	X63	Y63	Z63	X64	Y64	Z64	X65	Y65	Z65	X66	Y66	Z66	X67	Y67	Z67	X68	Y68	Z68	X69	Y69	Z69	X70	Y70	Z70	X71	Y71	Z71	X72	Y72	Z72	X73	Y73	Z73	X74	Y74	Z74	X75	Y75	Z75	X76	Y76	Z76	X77	Y77	Z77	X78	Y78	Z78	X79	Y79	Z79	X80	Y80	Z80	X81	Y81	Z81	X82	Y82	Z82	X83	Y83	Z83	X84	Y84	Z84	X85	Y85	Z85	X86	Y86	Z86	X87	Y87	Z87	X88	Y88	Z88	X89	Y89	Z89	X90	Y90	Z90	X91	Y91	Z91	X92	Y92	Z92	X93	Y93	Z93	X94	Y94	Z94	X95	Y95	Z95	X96	Y96	Z96	X97	Y97	Z97	X98	Y98	Z98	X99	Y99	Z99	X100	Y100	Z100	X101	Y101	Z101	X102	Y102	Z102	X103	Y103	Z103	X104	Y104	Z104	X105	Y105	Z105	X106	Y106	Z106	X107	Y107	Z107	X108	Y108	Z108	X109	Y109	Z109	X110	Y110	Z110	X111	Y111	Z111	X112	Y112	Z112	X113	Y113	Z113	X114	Y114	Z114	X115	Y115	Z115	X116	Y116	Z116	X117	Y117	Z117	X118	Y118	Z118	X119	Y119	Z119	X120	Y120	Z120	X121	Y121	Z121	X122	Y122	Z122	X123	Y123	Z123	X124	Y124	Z124	X125	Y125	Z125	X126	Y126	Z126	X127	Y127	Z127	X128	Y128	Z128	X129	Y129	Z129	X130	Y130	Z130	X131	Y131	Z131	X132	Y132	Z132	X133	Y133	Z133	X134	Y134	Z134	X135	Y135	Z135	X136	Y136	Z136	X137	Y137	Z137	X138	Y138	Z138	X139	Y139	Z139	X140	Y140	Z140	X141	Y141	Z141	X142	Y142	Z142	X143	Y143	Z143	X144	Y144	Z144	X145	Y145	Z145	X146	Y146	Z146	X147	Y147	Z147	X148	Y148	Z148	X149	Y149	Z149	X150	Y150	Z150	X151	Y151	Z151	X152	Y152	Z152	X153	Y153	Z153	X154	Y154	Z154	X155	Y155	Z155	X156	Y156	Z156	X157	Y157	Z157	X158	Y158	Z158	X159	Y159	Z159	X160	Y160	Z160	X161	Y161	Z161	X162	Y162	Z162	X163	Y163	Z163	X164	Y164	Z164	X165	Y165	Z165	X166	Y166	Z166	X167	Y167	Z167	X168	Y168	Z168	X169	Y169	Z169	X170	Y170	Z170	X171	Y171	Z171	X172	Y172	Z172	X173	Y173	Z173	X174	Y174	Z174	X175	Y175	Z175	X176	Y176	Z176	X177	Y177	Z177	X178	Y178	Z178	X179	Y179	Z179	

95	0.6266666666666667	86.69615173339844	1206.439086914062	-354.8191528320312	-35.48577880859375	1241.662231445312	-385.4837646484374	89.0748291015625	1221.131958007812	-241.8561859130859	-37.03137588500977	1274.77099609375	-221.7730865478515	-132.3574981689453	1117.694213867188	-281.8124999999999	-168.6605834960938	965.8841552734375	-278.9280090332031	-25.61941719055176	1065.929809570312	-298.9923400878906	2.298781156539917	1013.807678222656	-302.2560424804687	-154.5625457763672	1039.842163085938	-189.9492034912109	-115.4523315429688	1084.5615234375	-422.1754150390624	-213.2976684570312	918.095947265625	-446.5257568359374	-237.5736541748047	859.32373046875	-462.5750427246093	-262.4954528808594	791.0387573242188	-478.8780212402343	-273.2805786132812	662.3184814453125	-493.4431152343749	-226.3245086669922	662.83251953125	-545.2659301757812	-263.1387023925781	608.3873901367188	-555.5401000976562	-78.68029022216797	1093.0341796875	-153.9238281249999	-86.16062164306641	989.7285766601562	-99.20799255371088	-74.99258422851562	839.8638305664062	-47.97292709350581	-6.716596603393555	704.1887817382812	-31.27190971374507	17.47428321838379	667.3002319335938	-26.25303649902339	76.45732879638672	704.5987548828125	-46.43483352661129	106.8595504760742	651.8238525390625	-14.61084651947018	-160.295166015625	764.1819458007812	-294.0000305175781	-21.19991302490234	726.5559692382812	-394.1205444335937	-31.21127319335938	729.8931274414062	-167.9232788085937	-8.99711799621582	538.0427856445312	-438.1719360351562	-13.42685699462891	417.3989868164062	-410.9417724609375	41.80244827270508	450.5539245605469	-423.7541198730469	91.82902526855469	229.8407135009766	-422.4140930175781	59.39598846435547	117.4991607666016	-385.6224060058594	179.9056549072266	185.7500457763672	-425.7042846679688	290.3716735839844	118.906120300293	-397.1145935058594	-90.02449035644531	520.1010131835938	-158.8858032226562	-157.6436309814453	426.4555053710938	-178.1919403076172	-106.486701965332	420.70849609375	-181.0340423583984	-237.7883605957031	231.5801086425781	-180.7814331054688	-352.9106140136719	189.5225830078125	-199.7039184570312	-219.3327331542969	137.0040283203125	-200.2148284912109	-358.9046630859375	71.36466217041017	-267.7195434570312	-207.9559936523438	44.78878402709962	-233.8963165283203	-124.5954513549805	754.6224365234375	-285.7660522460937	-119.6759567260742	753.3025512695312	-285.5288391113281	-124.3700103759766	754.5473022460938	-290.8594970703124	-111.3759613037109	803.8687744140625	-285.9074096679687	162.2532653808594	51.86304092407229	-340.0500793457031	-231.4844665527344	26.05189514160158	-204.3206939697266	286.524658203125	87.41258239746097	-421.952880859375	46.43390655517578	382.1404724121094	-406.568603515625	-130.5607299804688	369.4376525878906	-194.5019226074218	177.1978454589844	70.80185699462893	-392.17138671875	-319.5572509765625	78.29007720947267	-222.037841796875	54.74882125854492	381.8678894042969	-354.989990234375	-141.8361663818359	371.1808166503906	-246.0213317871093	193.2591094970703	89.6081466674805	-361.5157165527344	-300.0144348144531	79.07616424560548	-256.3272094726562	-22.65779876708984	524.9299926757812	-436.5371093749999	-90.26526641845703	511.0677490234375	-149.6291198730468	81.04356384277344	200.8907775878907	-431.0369873046875	-264.9210205078125	229.0126800537109	-168.2850341796875	-199.3558502197266	1.478375131119074e-14	-241.4369812011719	254.2699890136719	-0.2560999989509441	-231.3000030517578	950.1600341796875	1.404999971389795	-394.6300048828125	0	0	0	0	0	0	0	0	0	0	0	0	-70.2449951171875	666.9671020507812	-333.2443237304687	-75.35196685791016	667.94677734375	-231.3967895507812	38.03857803344727	396.4072265625	-403.1125793457031	-138.1780395507812	368.32421875	-193.3944091796875	50.36648178100586	396.9248962402344	-352.3452758789062	-141.5209503173828	367.4084777832031	-246.04736328125	0.416115015745163	1.728489995002747	-0.1471138149499892	-199.3558502197266	1.478375131119074e-14	-241.4369812011719	-151.3389282226562	450.0994262695312	-258.002685546875	-256.7200012207031	0.07899999618532701	-396.4200134277344	254.2699890136719	-0.2560999989509441	-231.3000030517578	254.3151702880859	-0.5023738741874553	-231.3120574951172	254.2699890136719	-0.2560999989509441	-231.3000030517578	950.1600341796875	1.404999971389795	-394.6300048828125	950.1600341796875	1.404999971389795	-394.6300048828125	254.2699890136719	-0.2560999989509441	-231.3000030517578	15.02610397338867	2.666386365890503	0.1589497923851015	15.02610397338867	-2.666386365890503	-0.1589497923851015	-22.43288612365723	-17.49409294128418	-0.1187883391976367	12.67214488983154	-10.33314514160156	-1.76697850227356	38.52631759643555	-10.25133323669434	5.784262180328368	2.260939359664917	15.14358997344971	-3.020335912704467	-1.260157465934753	-28.39743423461914	-3.050970315933229	15.62908458709717	-38.68944549560547	-2.52151679992676	-3.318830490112305	19.05989646911621	-0.9795836210250842	16.40497970581055	15.07752513885498	3.696351051330567	0	2.385416091881692e-15	1.987846778527783e-15	3.18055471858951e-15	-7.951386796473776e-16	-9.939233495592225e-17	2.426685810089111	0	0	20.39933395385742	0	0	17.57546615600586	7.70562982559204	9.648584365844727	17.57546615600586	-7.70562982559204	-9.648584365844727	-12.58016490936279	-10.79341793060303	1.555425882339477	-12.58016490936279	10.79341793060303	-1.555425882339477	-30.45799255371094	-27.94347953796387	-8.271565437316896	36.21198272705078	6.106665195217131e-13	1.391492702617838e-15	-0.6565068364143372	76.85370635986328	-3.609183788299556	-4.787623405456543	-2.330127954483031	-19.86774063110352	46.98682022094727	1.357301749292661e-12	-7.951386796472945e-16	13.11343479156494	91.51445007324219	-4.330694198608393	2.354450225830078	8.304319381713867	0.1064513027668004	2.354450225830078	-8.304319381713867	-0.1064513027668004	-20.06772994995117	-2.328242540359497	-9.275453567504883	-20.06772994995117	2.328242540359497	9.275453567504883	0	0.1053743809461594	6.452319916892395e-18	0	-0.07815570384263992	-4.785656627299874e-18	0	0.002001338871195912	1.225466621309625e-19	0	-0.08031085133552551	-4.917621351242513e-18	0	-0.5910296440124512	-3.61901280870524e-17	0	0.6581716537475586	4.030139045257338e-17	0	-0.2531272768974304	-1.54995754714662e-17	0	-0.2531272768974304	-1.54995754714662e-17	0	0.1014067903161049	6.209375058621233e-18	0	0.1014067903161049	6.209375058621233e-18	0	-0.002274747006595135	-1.392880820248377e-19	0	0.006251527462154627	3.82795654815472e-19	0	-0.03178703039884567	-1.946394251617299e-18	0	0.004603210836648941	2.818653708451268e-19	0	-0.00964039471000433	-5.903039262061939e-19	0	0.0008658187580294907	5.301610853312762e-20	-151.3389282226562	450.0994262695312	-258.002685546875	254.3151702880859	-0.5023738145828105	-231.3120422363281	950.1600341796875	1.404999971389795	-394.6300048828125	0.416115015745163	1.728489995002747	-0.1471138149499892	1.666053533554077	-10.37353706359863	1.552033185958862	-0.4178915023803711	0.6672835946083069	-0.2243439555168152	4.685180187225342	-10.66016292572021	-1.244482398033143	-0.09650677442550659	-0.368180900812149	-0.04137936979532244	12.19625854492188	1.495718240737915	-0.1647756546735763	0	0	0	13.36106395721436	126.7878265380859	-4.587048053741447	0	0	0	1.310720443725586	12.43788623809814	-0.4499894082546226	0	0	0	1.310720443725586	12.43788623809814	-0.4499894082546226	1.559079885482788	-7.138787269592285	0.4077932536602016	1.559079885482788	-7.138787269592285	0.4077932536602016	0.1978427469730377	-1.789946436882019	0.1521224379539489	0.1978427469730377	-1.789946436882019	0.1521224379539489	0.07982703298330307	0.5471197366714478	0.2197821736335755	0.1690087020397186	0.6007144451141357	-0.116651140153408	-0.1681828498840332	0.210998073220253	0.08068091422319414	-0.1009110361337662	0.2544197142124176	-0.03939111158251761	0.004262642934918404	0.06097150966525077	0.06938108056783676	0.01591397076845169	0.0623992495238781	-0.03027283586561679	-151.3389282226562	450.0994262695312	-258.002685546875	48.01693344116211	450.0994262695312	-16.5657043457031	254.3151702880859	-0.5023738145828105	-231.3120422363281	0.04518882185220718	-0.2462738305330276	-0.01204590406268837	950.1600341796875	1.404999971389795	-394.6300048828125	0.04518882185220718	-0.2462738305330276	-0.01204590406268837	189.1227569580078	-10.26205539703369	-37.84935760498047	-655.2127685546875	1.504968881607096	-655.6975708007812	-158.5222015380859	5.102333068847662	-84.08484649658203	248.0433654785156	40.08269500732422	-21.28682708740234	5.268107414245605	3.634905099868774	-1.992686867713928	1353.299438476562	-0.1388708353042551	-84.95037078857422	nan	nan	nan	-1923.740966796875	243.0603637695312	711.5435791015625	-618.0559692382812	-75.8526611328125	-8.582055091857915	-618.0559692382812	75.8526611328125	8.582055091857915	-185.6217651367188	18.33990097045898	126.3682861328125	-185.6217651367188	-18.33990097045898	-126.3682861328125	-29.73431968688965	-4.761046409606931	-38.13102340698242	30.03442764282227	-4.003338813781737	-17.76037406921387	-32.45512390136719	0.2706341743469243	-8.428604125976562	-8.904685974121094	-0.09531234949827161	-5.386128425598145	0.09383880347013474	-1.697809130104824e-15	-4.239737510681152	0.8820965886116028	-2.87672236726657e-16	-1.295780062675476	-69757.765625	8741.729492187498	25819.56640625	11.00276756286621	-15.2636251449585	-13.61529159545899	11.00276756286621	-15.2636251449585	-13.61529159545899	
96	0.6333333333333334	95.22962188720703	1205.63671875	-355.3449401855468	-26.82987403869629	1240.895874023438	-386.3248901367187	97.26155853271484	1220.1474609375	-242.359878540039	-28.90691757202148	1273.749389648438	-222.5726776123046	-124.0005798339844	1116.693237304688	-282.9888916015624	-159.9215393066406	964.760498046875	-279.8459472656249	-17.08646202087402	1065.055419921875	-300.1554260253906	10.93016815185547	1013.028747558594	-303.3560180664062	-146.1634521484375	1038.958984375	-191.1153869628906	-107.0196914672852	1083.312622070312	-423.3539733886718	-205.0054168701172	916.9649658203125	-447.2994384765624	-229.39599609375	858.2991333007812	-463.2855224609374	-254.9249877929688	790.187255859375	-479.0440673828124	-266.5536499023438	661.4051513671875	-492.3564758300781	-221.0855712890625	661.4395141601562	-545.7618408203125	-259.3810424804688	607.294677734375	-554.6724853515625	-70.3455810546875	1092.343505859375	-155.1437072753906	-77.87702941894531	989.0489501953125	-100.3916931152343	-66.90631103515625	839.2286376953125	-49.1527709960937	2.113706588745117	703.8445434570312	-32.16691589355464	26.51471519470215	667.0776977539062	-27.07009506225582	85.31504058837891	704.7639770507812	-47.05448150634761	115.9482040405273	652.36181640625	-15.01639366149898	-150.9578857421875	763.3309936523438	-294.3654479980468	-11.42613220214844	725.8024291992188	-394.0032653808593	-22.38103485107422	728.94482421875	-167.8218688964843	1.965108156204224	537.9239501953125	-437.3450927734374	-3.106234788894653	417.246826171875	-411.0013122558594	52.39422988891602	450.3185424804688	-422.3050537109375	101.0609359741211	229.2163696289063	-421.6027526855469	66.92843627929688	116.9303283691407	-386.0557250976562	188.7033386230469	184.6273498535157	-423.5908813476562	297.7550659179688	116.5674667358399	-393.268310546875	-81.73247528076172	519.2310791015625	-158.7168884277343	-149.5197906494141	425.6769714355469	-178.0767211914062	-98.33527374267578	419.8045043945312	-180.6672821044922	-233.0560302734375	232.8330383300781	-180.4873962402343	-349.0148620605469	193.3197631835938	-199.5614929199219	-216.7246398925781	137.7708740234375	-199.4680938720703	-357.4739074707031	75.30110931396486	-267.0477600097656	-207.2173156738281	44.76593017578126	-233.4760589599609	-115.2759552001953	753.7642822265625	-286.0437927246093	-110.3573379516602	752.4447631835938	-285.7872314453124	-115.0293045043945	753.6935424804688	-291.1363525390624	-102.0618362426758	803.0122680664062	-286.0878906249999	168.3079376220703	50.33432769775393	-338.9115600585938	-231.2646789550781	26.0447463989258	-204.2168884277344	294.1547241210938	85.25453948974612	-418.4205627441406	56.64214324951172	381.8153381347656	-405.4480285644531	-122.4822998046875	368.5703125	-194.099380493164	184.4107513427734	69.23303985595706	-390.7165832519531	-318.1586608886719	81.2558059692383	-221.3280944824219	63.77229690551758	381.2206726074219	-353.6950378417969	-133.5178527832031	370.19775390625	-245.6744842529297	200.07275390625	87.7180099487305	-359.6614990234375	-298.5063171386719	81.45082855224611	-255.5632934570312	-11.21873950958252	524.7249755859375	-436.1360473632812	-81.97241973876953	510.3153686523438	-149.3558044433593	89.95804595947266	200.4200897216797	-430.4764709472656	-260.2200317382812	230.9968719482422	-167.7963562011719	-196.9826965332031	1.479026079777038e-14	-241.5432891845703	254.2699890136719	-0.2560999989509441	-231.3000030517578	950.1600341796875	1.404999971389795	-394.6300048828125	0	0	0	0	0	0	0	0	0	0	0	0	-60.71786117553711	666.1559448242188	-333.3704223632812	-66.24905395507812	667.0476684570312	-231.5442199707031	48.43566513061523	396.1578063964844	-402.3284606933594	-130.3392181396484	367.2315673828125	-193.3926391601562	59.82765960693359	396.2760314941406	-351.3404846191406	-133.5533447265625	366.1636962890625	-246.0507659912109	0.4512484967708588	1.741946697235107	-0.1883714497089385	-196.9826965332031	1.479026079777038e-14	-241.5432891845703	-144.3523559570312	448.6693420410156	-256.7166748046875	-256.7200012207031	0.07899999618532701	-396.4200134277344	254.2699890136719	-0.2560999989509441	-231.3000030517578	254.3151702880859	-0.5023738741874553	-231.3120574951172	254.2699890136719	-0.2560999989509441	-231.3000030517578	950.1600341796875	1.404999971389795	-394.6300048828125	950.1600341796875	1.404999971389795	-394.6300048828125	254.2699890136719	-0.2560999989509441	-231.3000030517578	15.01981639862061	2.88411808013916	0.04966091364622133	15.01981639862061	-2.88411808013916	-0.04966091364622133	-22.06299018859863	-16.41183280944824	-0.1079236194491396	14.14260101318359	-10.12490653991699	-1.746258258819581	38.43807983398438	-9.153651237487793	5.575416088104247	2.112726449966431	15.07486057281494	-2.817439317703246	-0.9771864414215088	-28.62919235229492	-2.820853710174562	16.77805328369141	-38.6195068359375	-2.711983442306521	-3.205010652542114	19.06368255615234	-0.9461269974708545	16.26447296142578	15.52447319030762	3.789623737335206	0	-5.599143369595967e-31	9.144095054172859e-15	-3.18055471858951e-15	7.951386796473774e-16	2.782985405235601e-15	2.551494598388672	0	0	20.19807434082031	0	0	17.70863723754883	7.884056568145751	9.457605361938477	17.70863723754883	-7.884056568145751	-9.457605361938477	-12.67893600463867	-11.01711177825928	1.775484442710876	-12.67893600463867	11.01711177825928	-1.775484442710876	-30.75587463378906	-28.02050971984863	-8.313355445861818	35.85077667236328	5.852220834670629e-13	-1.19270804594081e-15	-1.781823515892029	75.56873321533203	-4.223039627075191	-4.930511474609375	-2.686346530914305	-19.71103286743164	47.19481658935547	-1.453513524818373e-12	-1.590277359294844e-15	13.29165267944336	91.64742279052734	-4.444643497467036	2.219354391098022	8.334019660949707	0.01618210412561944	2.219354391098022	-8.334019660949707	-0.01618210412561944	-20.0872859954834	-2.46208643913269	-9.128560066223145	-20.0872859954834	2.46208643913269	9.128560066223145	0	0.05381738021969795	3.295364121227459e-18	0	0.04709047824144363	2.883460172435102e-18	0	0.003030297346413136	1.855521972874782e-19	0	0.09173437207937241	5.617110256939787e-18	0	-0.7469625473022461	-4.573826463183246e-17	0	1.183048009872437	7.244079792639628e-17	0	-0.2808297872543335	-1.719586500331258e-17	0	-0.2808297872543335	-1.719586500331258e-17	0	0.09169770032167435	5.614864759405585e-18	0	0.09169770032167435	5.614864759405585e-18	0	-0.000992330489680171	-6.076271789415735e-20	0	0.008656984195113182	5.300873992407293e-19	0	-0.02976412512362003	-1.82252702810313e-18	0	0.004368401132524014	2.674874232168603e-19	0	-0.0100164832547307	-6.133327078309508e-19	0	0.00082648970419541	5.060789853855759e-20	-144.3523559570312	448.6693420410156	-256.7166748046875	254.3151702880859	-0.5023738145828105	-231.3120422363281	950.1600341796875	1.404999971389795	-394.6300048828125	0.4512484967708588	1.741946578025818	-0.1883714497089385	1.606922507286072	-10.34561061859131	1.494816064834594	-0.3426186740398407	0.6632015109062195	-0.208128735423088	4.78925085067749	-10.56197929382324	-1.367491006851197	-0.09708607196807861	-0.3265443742275238	-0.04320773482322695	12.14382266998291	1.673060894012451	-0.224623143672943	0	0	0	14.7097110748291	126.3746566772461	-4.155612945556633	0	0	0	1.443022727966309	12.39735412597656	-0.4076656401157371	0	0	0	1.443022727966309	12.39735412597656	-0.4076656401157371	1.440709590911865	-7.048047542572021	0.3347108662128444	1.440709590911865	-7.048047542572021	0.3347108662128444	0.0457998551428318	-1.609211921691895	0.08246225118637075	0.0457998551428318	-1.609211921691895	0.08246225118637075	0.08465921133756638	0.5566709637641907	0.2182882428169251	0.1692159473896027	0.5976539850234985	-0.1251072436571121	-0.1718888580799103	0.2159661203622818	0.07911358028650285	-0.1007527336478233	0.2513174116611481	-0.0418683923780918	0.00160815182607621	0.06366816908121109	0.0721825510263443	0.01558872032910585	0.06149798631668091	-0.02963303588330745	-144.3523559570312	448.6693420410156	-256.7166748046875	52.63033294677734	448.6693420410156	-15.17338371276853	254.3151702880859	-0.5023738145828105	-231.3120422363281	0.04518882185220718	-0.2462738305330276	-0.01204590406268837	950.1600341796875	1.404999971389795	-394.6300048828125	0.04518882185220718	-0.2462738305330276	-0.01204590406268837	148.4686431884766	-6.646518707275388	-45.59493637084961	-669.826416015625	3.399135828018228	-636.197021484375	-136.1960296630859	4.833582401275639	-76.54055786132812	269.6458740234375	42.18246459960938	0.4468555152416255	4.383697986602783	3.584264993667603	-1.866809964179992	1372.17529296875	0.247015535831457	-90.82035827636719	nan	nan	nan	-1913.457763671875	263.2342224121093	733.8507080078125	-687.955078125	-98.85950469970703	-63.42518997192384	-687.955078125	98.85950469970703	63.42518997192384	-234.7900848388672	2.238687992095945	47.10801315307617	-234.7900848388672	-2.238687992095945	-47.10801315307617	-31.04203987121582	-4.385327816009519	-37.60860443115234	29.60316276550293	-3.946369409561156	-19.03753471374512	-33.95808029174805	0.3577873110771184	-7.982789516448975	-8.668601989746094	-0.0823666453361508	-5.302669525146484	-0.132880374789238	-3.088017693103963e-16	-4.547002792358398	0.8048627376556396	1.854190793805561e-16	-1.229976058006287	-69488.4375	9603.055664062498	26802.298828125	11.00276756286621	-15.2636251449585	-13.61529159545899	11.00276756286621	-15.2636251449585	-13.61529159545899	
